<?xml version="1.0" standalone="no"?>
<!DOCTYPE svg PUBLIC "-//W3C//DTD SVG 20010904//EN"
 "http://www.w3.org/TR/2001/REC-SVG-20010904/DTD/svg10.dtd">
<svg version="1.0" xmlns="http://www.w3.org/2000/svg"
 width="2000.000000pt" height="2000.000000pt" viewBox="0 0 2000.000000 2000.000000"
 preserveAspectRatio="xMidYMid meet">
<metadata>
Created by potrace 1.14, written by Peter Selinger 2001-2017
</metadata>
<g transform="translate(0.000000,2000.000000) scale(0.100000,-0.100000)"
fill="#000000" stroke="none">
<path d="M8944 19240 c-57 -23 -101 -91 -253 -392 -84 -167 -156 -307 -159
-313 -4 -5 -7 -12 -8 -15 0 -3 -52 -111 -116 -240 -192 -391 -209 -429 -202
-443 4 -6 3 -8 -1 -4 -9 8 -65 -94 -65 -119 0 -8 -4 -14 -10 -14 -5 0 -10 -4
-10 -10 0 -5 -16 -42 -35 -81 -19 -39 -32 -75 -29 -80 3 -5 1 -9 -3 -9 -8 0
-22 -28 -88 -175 -20 -44 -44 -98 -55 -120 -17 -38 -31 -68 -80 -178 -11 -26
-18 -53 -14 -59 4 -6 3 -8 -3 -5 -8 5 -40 -51 -58 -103 -1 -3 -6 -16 -12 -30
-21 -49 -36 -85 -38 -90 -1 -3 -16 -36 -33 -74 -18 -38 -32 -70 -32 -72 0 -7
-90 -218 -100 -237 -6 -10 -8 -22 -5 -27 4 -6 2 -10 -3 -10 -8 0 -82 -173 -82
-192 0 -5 -9 -24 -20 -43 -11 -20 -20 -40 -20 -46 0 -6 -6 -25 -14 -42 -8 -18
-26 -61 -41 -97 -14 -36 -30 -74 -36 -85 -6 -12 -11 -27 -13 -35 -2 -8 -7 -24
-11 -35 -4 -11 -19 -49 -32 -85 -14 -36 -31 -79 -39 -96 -7 -17 -15 -40 -17
-50 -1 -11 -6 -24 -9 -30 -4 -5 -13 -28 -21 -50 -8 -21 -34 -91 -57 -154 -24
-63 -43 -125 -44 -137 0 -12 -3 -19 -5 -17 -6 6 -63 -154 -65 -181 0 -11 -4
-22 -7 -25 -10 -8 -92 -243 -93 -267 0 -13 -4 -23 -8 -23 -4 0 -12 -19 -18
-42 -6 -24 -15 -52 -20 -63 -4 -11 -16 -45 -26 -75 -9 -30 -20 -64 -25 -75 -6
-17 -19 -54 -24 -75 -1 -3 -5 -14 -9 -25 -24 -63 -38 -101 -38 -105 0 -3 -2
-9 -4 -15 -2 -5 -22 -68 -45 -140 -23 -71 -47 -143 -54 -160 -10 -24 -101
-303 -111 -340 -2 -5 -21 -63 -44 -129 -23 -65 -39 -125 -36 -133 3 -8 2 -12
-2 -9 -4 2 -48 -118 -97 -267 -49 -150 -118 -360 -153 -467 -35 -107 -65 -199
-66 -205 -1 -5 -7 -23 -13 -40 -7 -16 -42 -124 -78 -240 -37 -115 -75 -235
-86 -265 -19 -57 -153 -473 -284 -885 -42 -132 -88 -276 -102 -320 l-25 -80
-117 -1 c-130 -1 -477 -13 -531 -19 -19 -2 -75 -6 -125 -10 -103 -7 -125 -9
-295 -30 -1033 -129 -1697 -468 -1974 -1006 -88 -171 -153 -414 -143 -535 21
-274 343 -483 1032 -672 45 -13 347 -79 397 -87 18 -3 40 -8 48 -10 8 -2 38
-7 65 -11 28 -3 53 -8 56 -9 17 -11 576 -90 784 -111 33 -3 63 -9 67 -13 4 -3
1 -31 -7 -61 -13 -47 -120 -487 -130 -530 -9 -41 -272 -1082 -301 -1192 -18
-71 -36 -138 -38 -150 -14 -72 -278 -1056 -371 -1388 -52 -185 -105 -375 -171
-620 -58 -214 -207 -798 -234 -920 -12 -52 -23 -102 -25 -110 -65 -261 -225
-1039 -225 -1090 0 -72 61 -121 154 -122 95 -2 115 22 164 192 17 58 54 184
82 280 29 96 58 195 65 220 12 44 147 486 225 740 130 424 391 1217 500 1520
46 128 247 665 285 760 35 89 163 469 225 670 23 74 50 162 60 195 109 349
306 1106 415 1590 3 16 20 24 77 39 539 135 1377 384 1655 492 35 13 93 36
130 50 105 41 388 161 492 210 51 24 95 44 96 44 5 0 267 125 448 214 86 43
161 76 166 74 19 -7 456 -424 891 -852 179 -176 245 -232 361 -304 105 -66
247 -125 366 -152 179 -41 535 -30 893 26 135 21 183 30 310 59 8 2 23 4 33 4
10 1 16 4 14 9 -3 4 9 8 27 9 17 1 69 13 116 28 47 14 95 28 107 30 61 14 343
120 483 182 55 24 310 150 365 181 167 91 377 226 368 237 -5 4 -3 6 2 2 6 -3
29 6 50 21 120 81 164 116 158 125 -3 5 -1 7 5 3 13 -8 148 92 144 106 -1 5 2
7 7 4 5 -4 15 0 23 7 7 7 25 21 40 31 15 10 25 22 22 27 -3 5 -1 8 4 7 10 -3
53 26 94 64 16 16 32 28 35 28 5 0 118 93 133 110 3 3 27 24 54 45 67 54 101
88 98 98 -1 5 1 6 5 4 14 -9 46 21 37 34 -4 8 -3 10 4 5 7 -4 22 3 35 16 13
13 59 54 101 91 42 38 73 73 70 78 -3 5 -2 9 3 8 22 -4 35 2 30 15 -4 9 -1 13
6 11 7 -3 41 25 77 60 69 69 71 69 84 2 3 -12 19 -67 37 -122 18 -55 33 -102
34 -105 1 -3 7 -18 13 -33 7 -16 12 -30 12 -33 0 -2 8 -23 19 -47 10 -23 24
-57 31 -74 7 -18 17 -30 23 -26 6 3 7 1 3 -5 -6 -10 18 -69 33 -82 3 -3 13
-21 22 -40 41 -88 219 -297 242 -283 6 3 7 1 3 -5 -6 -10 42 -62 67 -73 5 -2
30 -24 56 -49 62 -59 89 -80 101 -80 6 0 10 -3 10 -8 0 -7 91 -78 204 -159 32
-23 63 -40 69 -36 6 3 7 1 3 -5 -7 -11 7 -17 29 -12 6 1 7 -2 3 -6 -7 -6 111
-94 126 -94 2 0 37 -22 78 -48 40 -26 84 -53 98 -60 14 -7 41 -22 60 -33 95
-56 120 -69 120 -62 0 4 4 3 8 -3 12 -20 211 -116 223 -108 7 4 9 3 6 -3 -5
-8 48 -42 73 -48 3 0 19 -9 37 -18 18 -9 39 -17 48 -17 8 0 15 -4 15 -10 0 -5
8 -10 18 -10 10 0 22 -3 25 -6 6 -6 110 -52 132 -58 6 -2 24 -9 40 -15 65 -28
185 -69 185 -64 0 3 6 0 14 -6 7 -6 25 -12 40 -13 14 -1 26 -6 26 -11 0 -4 6
-7 13 -6 6 1 26 -3 42 -10 17 -7 66 -26 110 -42 97 -37 198 -89 286 -146 71
-46 199 -162 199 -181 0 -5 3 -12 8 -14 10 -4 48 -84 63 -133 15 -51 15 -158
-2 -215 -7 -25 -13 -47 -13 -50 -2 -11 -71 -187 -92 -235 -10 -22 -18 -43 -18
-47 -1 -4 -7 -13 -13 -20 -7 -6 -13 -16 -13 -21 0 -5 -11 -31 -25 -58 -13 -27
-21 -49 -17 -49 4 0 -1 -5 -11 -11 -9 -6 -15 -14 -12 -20 4 -5 1 -9 -4 -9 -6
0 -11 -5 -11 -10 0 -6 -25 -51 -55 -101 -30 -50 -55 -92 -55 -94 0 -2 -30 -48
-67 -102 -36 -54 -66 -103 -66 -110 0 -7 -3 -10 -7 -8 -4 2 -31 -30 -60 -73
-30 -42 -59 -81 -65 -87 -6 -5 -27 -30 -45 -55 -19 -25 -67 -84 -108 -132 -43
-52 -70 -93 -66 -99 4 -8 3 -9 -5 -5 -11 7 -68 -51 -64 -66 2 -4 0 -7 -5 -6
-8 3 -103 -96 -99 -103 1 -2 0 -3 -2 -2 -2 1 -19 -15 -38 -35 -79 -86 -290
-295 -404 -402 -68 -63 -145 -136 -171 -162 -26 -25 -48 -45 -48 -42 0 2 -16
-10 -36 -28 -20 -18 -46 -42 -58 -53 -30 -27 -114 -99 -211 -181 -44 -37 -82
-70 -85 -74 -3 -4 -13 -11 -22 -16 -9 -5 -36 -26 -60 -46 -40 -35 -165 -135
-252 -203 -21 -16 -67 -52 -101 -80 -35 -27 -103 -81 -151 -120 -133 -105
-454 -364 -495 -399 -19 -17 -57 -49 -84 -71 -125 -102 -382 -320 -449 -380
-6 -6 -49 -43 -96 -84 -84 -74 -198 -176 -334 -301 -121 -110 -519 -511 -597
-600 -41 -47 -76 -87 -79 -90 -15 -13 -150 -185 -186 -237 -73 -102 -141 -230
-170 -321 -25 -74 -29 -103 -29 -192 1 -90 4 -112 25 -154 58 -120 215 -223
352 -233 132 -10 189 18 354 172 327 304 572 543 1359 1330 777 777 1073 1079
1345 1376 47 51 96 104 110 119 14 15 45 50 70 79 25 30 59 68 75 86 17 18 50
57 75 85 25 29 53 59 63 68 9 9 17 20 17 24 0 4 10 18 23 31 47 49 97 106 97
111 0 3 10 16 23 29 32 33 87 98 87 103 0 1 12 16 26 31 34 37 33 36 169 208
66 83 122 152 125 155 13 12 110 140 106 140 -3 0 5 10 17 23 67 71 358 468
350 480 -3 5 -1 7 4 4 14 -9 46 40 37 55 -4 7 -3 8 4 4 17 -11 188 253 174
269 -4 5 -2 5 4 2 6 -3 20 10 31 31 12 20 31 55 43 77 12 22 26 45 30 50 4 6
26 48 50 95 23 47 53 106 67 132 13 27 21 52 18 58 -3 5 -2 10 3 10 9 0 36 53
33 65 -1 3 5 18 14 34 15 30 64 173 68 201 2 8 5 20 9 25 7 12 20 70 34 155
32 192 24 385 -24 510 -3 8 -6 17 -7 20 -4 13 -28 68 -42 100 -20 42 -74 124
-85 128 -4 2 -8 9 -8 15 -1 29 -258 267 -288 267 -5 0 -17 9 -27 20 -10 11
-23 20 -28 20 -6 0 -18 6 -26 14 -29 26 -133 76 -144 69 -5 -3 -7 -2 -4 4 3 5
-11 15 -31 22 -20 7 -50 19 -67 26 -16 7 -70 30 -120 50 -49 21 -110 46 -135
58 -128 57 -200 86 -200 79 0 -4 -4 -2 -8 4 -11 17 -71 46 -82 39 -6 -3 -10
-2 -10 3 0 9 -164 87 -176 83 -4 -2 -10 2 -13 7 -11 17 -223 112 -234 105 -7
-3 -8 -2 -4 2 9 11 -384 206 -398 197 -5 -3 -7 -2 -3 3 4 4 -41 32 -100 63
-59 30 -119 63 -134 74 -15 10 -37 20 -47 21 -11 0 -19 5 -18 11 1 5 -8 15
-20 21 -13 7 -31 19 -41 28 -10 10 -21 17 -24 17 -9 0 -71 54 -154 133 -39 37
-74 64 -79 60 -4 -5 -5 -3 -2 3 4 6 -1 21 -11 32 -9 11 -24 29 -33 40 -28 34
-99 143 -99 153 0 5 -4 9 -10 9 -5 0 -10 6 -10 13 0 7 -13 37 -28 67 -26 49
-60 139 -63 165 -1 6 -5 21 -10 34 -5 13 -12 39 -15 59 -3 19 -8 44 -10 56
-14 62 -20 255 -10 321 23 147 52 210 150 315 69 75 164 195 160 202 -3 5 -1
7 4 6 13 -4 83 82 76 93 -3 5 -2 8 3 7 11 -4 39 25 93 97 25 33 50 65 55 71 6
7 18 22 27 35 9 13 60 81 112 151 52 69 92 129 88 132 -3 3 -1 6 5 6 5 0 32
33 59 73 27 39 54 77 60 84 6 6 38 51 70 100 32 48 61 90 65 93 11 9 239 358
239 366 0 4 10 21 23 38 13 17 27 38 30 46 4 8 17 31 29 50 30 49 161 308 177
350 21 56 63 184 66 200 40 215 5 322 -128 392 -34 19 -57 23 -127 22 -102 0
-156 -20 -272 -101 -86 -60 -318 -284 -318 -307 0 -3 -12 -18 -26 -33 -14 -15
-53 -64 -85 -108 -33 -44 -67 -89 -75 -100 -17 -21 -131 -193 -206 -310 -71
-110 -252 -413 -289 -485 -19 -36 -38 -70 -44 -76 -5 -6 -23 -40 -40 -75 -16
-35 -32 -66 -35 -69 -8 -8 -101 -203 -149 -315 -21 -48 -61 -157 -64 -173 -1
-9 -5 -21 -9 -27 -5 -8 -18 -64 -35 -145 -1 -8 -5 -37 -7 -64 -5 -54 13 -34
-201 -231 -126 -116 -125 -115 -125 -126 0 -6 -4 -8 -8 -5 -5 3 -15 -3 -24
-12 -9 -9 -44 -42 -78 -72 -34 -30 -79 -71 -100 -90 -42 -38 -136 -121 -208
-185 -25 -22 -61 -54 -79 -72 -18 -18 -33 -30 -33 -27 0 3 -16 -9 -35 -28 -19
-18 -49 -45 -67 -59 -30 -25 -168 -141 -194 -164 -7 -5 -29 -24 -50 -42 -22
-18 -52 -44 -69 -58 -16 -14 -34 -25 -39 -25 -4 0 -5 -7 -2 -16 3 -8 2 -12 -4
-9 -8 5 -82 -46 -110 -75 -3 -3 -41 -34 -85 -69 -44 -35 -81 -68 -83 -72 -2
-5 -8 -9 -14 -9 -5 0 -36 -20 -67 -45 -68 -51 -260 -180 -311 -208 -19 -11
-37 -22 -40 -26 -3 -3 -14 -11 -25 -17 -11 -6 -42 -23 -70 -39 -166 -93 -483
-245 -511 -245 -8 0 -14 -5 -14 -10 0 -6 -3 -9 -7 -8 -5 0 -15 -1 -23 -5 -8
-3 -62 -22 -120 -42 -58 -20 -114 -41 -125 -45 -11 -5 -29 -11 -40 -13 -11 -3
-69 -20 -130 -37 -60 -17 -121 -33 -135 -36 -14 -3 -33 -7 -42 -10 -10 -3 -30
-7 -45 -10 -16 -2 -37 -6 -48 -9 -11 -2 -45 -7 -75 -10 -77 -8 -83 -10 -97
-18 -8 -5 -13 -3 -13 3 0 6 -4 9 -9 6 -14 -9 -208 -10 -276 -2 -104 12 -128
17 -210 37 -211 53 -465 232 -802 567 -149 149 -236 240 -350 368 -120 134
-133 149 -133 155 0 5 25 19 215 119 55 29 125 66 155 83 30 17 69 37 85 46
17 8 32 17 35 20 3 3 32 20 65 37 75 38 182 97 258 140 32 19 60 34 62 34 2 0
58 32 125 70 67 39 126 70 131 70 5 0 9 4 9 9 0 5 9 11 21 14 13 4 18 10 13
18 -4 8 -3 10 5 5 6 -4 52 16 104 46 50 29 104 59 119 67 16 7 28 17 28 22 0
5 5 9 11 9 14 0 153 81 157 92 2 4 8 8 14 8 9 0 154 84 268 155 55 34 143 89
165 102 107 64 183 117 178 126 -3 6 -1 7 6 3 6 -4 43 12 84 38 89 57 103 66
132 89 13 9 27 17 33 17 5 0 17 9 27 20 10 11 22 17 26 14 5 -3 12 2 15 10 3
9 10 16 15 16 5 0 49 26 97 57 48 32 94 61 102 64 8 4 25 16 37 28 12 12 25
21 28 21 8 0 69 44 73 53 2 4 8 7 12 7 11 0 144 92 148 102 2 4 9 8 16 8 7 0
21 8 32 18 10 10 34 27 52 37 17 11 32 23 32 27 0 4 6 8 13 8 10 0 70 42 142
97 6 5 39 28 75 52 36 25 90 63 120 86 30 23 100 75 155 116 55 40 102 76 105
79 3 3 24 18 48 34 23 16 42 33 42 37 0 5 5 9 11 9 9 0 59 37 216 163 34 28
60 54 56 60 -3 6 -1 7 5 3 10 -6 93 54 182 131 8 7 51 42 95 79 44 36 103 85
130 109 28 24 61 53 75 64 127 108 213 186 380 339 115 106 623 613 735 733
94 102 246 267 268 293 10 11 30 35 45 51 131 148 186 211 301 350 158 190
142 170 261 320 109 137 93 116 265 346 229 306 400 553 615 889 324 506 755
1303 767 1418 5 52 4 54 -36 92 -44 42 -71 48 -118 28 -29 -13 -76 -56 -105
-98 -48 -68 -469 -629 -493 -656 -5 -7 -35 -44 -65 -84 -48 -63 -164 -210
-263 -334 -123 -154 -464 -566 -476 -576 -3 -3 -28 -32 -56 -65 -27 -33 -52
-62 -55 -65 -3 -3 -28 -32 -55 -65 -28 -33 -53 -62 -56 -65 -3 -3 -27 -30 -54
-60 -26 -30 -75 -86 -109 -124 -34 -38 -68 -77 -76 -86 -37 -42 -170 -189
-217 -240 -29 -31 -62 -67 -73 -80 -181 -209 -905 -938 -1252 -1260 -50 -47
-105 -98 -123 -115 -18 -16 -67 -61 -110 -100 -43 -38 -83 -75 -89 -80 -9 -9
-53 -48 -221 -196 -16 -14 -53 -46 -81 -70 -28 -24 -78 -68 -112 -98 -34 -29
-71 -60 -82 -68 -11 -8 -35 -27 -52 -44 -18 -16 -36 -29 -41 -29 -5 0 -6 -7
-3 -16 3 -9 2 -12 -5 -9 -8 6 -66 -34 -115 -80 -6 -5 -28 -23 -49 -40 -20 -16
-42 -35 -49 -40 -6 -6 -56 -46 -111 -89 -55 -44 -105 -85 -111 -93 -6 -7 -15
-13 -20 -13 -5 0 -27 -16 -49 -36 -22 -20 -57 -47 -77 -61 -21 -14 -35 -30
-31 -36 3 -5 2 -7 -4 -4 -6 4 -82 -48 -169 -114 -87 -66 -170 -128 -183 -137
-13 -9 -35 -26 -50 -38 -14 -11 -56 -42 -94 -68 -37 -26 -65 -52 -62 -57 4 -5
0 -6 -8 -3 -8 3 -21 -1 -28 -8 -15 -15 -81 -62 -209 -149 -41 -28 -79 -57 -85
-63 -5 -6 -22 -17 -37 -25 -15 -8 -25 -19 -21 -24 3 -6 2 -7 -3 -4 -12 7 -140
-81 -137 -93 2 -5 -4 -7 -12 -4 -8 4 -15 1 -15 -5 0 -6 -4 -11 -9 -11 -19 0
-110 -66 -106 -77 2 -7 -2 -10 -11 -6 -18 7 -46 -15 -37 -30 3 -6 1 -7 -6 -3
-10 7 -72 -29 -79 -46 -2 -4 -8 -8 -14 -8 -5 0 -69 -39 -141 -87 -73 -48 -157
-103 -187 -121 -30 -18 -57 -36 -60 -40 -3 -4 -23 -17 -45 -29 -22 -12 -39
-27 -37 -33 1 -6 -2 -9 -7 -6 -13 8 -102 -49 -93 -59 4 -5 2 -5 -4 -2 -7 4
-27 -4 -45 -16 -19 -13 -60 -38 -92 -57 -81 -48 -85 -51 -150 -93 -31 -20 -61
-37 -66 -37 -5 0 -11 -4 -13 -8 -3 -8 -63 -45 -163 -100 -16 -9 -31 -20 -33
-24 -2 -5 -8 -8 -13 -8 -5 0 -32 -15 -61 -33 -29 -19 -73 -45 -98 -59 -81 -45
-125 -72 -130 -79 -3 -4 -21 -14 -40 -23 -19 -8 -55 -27 -80 -42 -75 -45 -112
-66 -170 -98 -30 -16 -57 -32 -60 -35 -3 -3 -21 -14 -40 -25 -19 -10 -55 -30
-80 -43 -53 -28 -136 -74 -240 -132 -154 -86 -179 -96 -198 -84 -14 10 -230
135 -367 211 -199 112 -555 268 -790 347 -48 16 -289 82 -325 89 -14 3 -70 14
-125 26 -55 11 -116 23 -135 26 -47 7 -80 13 -110 19 -14 3 -52 8 -85 11 -33
4 -62 8 -66 10 -3 1 -39 6 -80 10 -119 11 -115 -14 -33 264 189 636 194 653
309 1025 24 77 53 174 65 215 12 41 27 89 33 105 6 17 12 35 13 40 2 10 30
100 89 285 86 272 126 400 125 402 0 2 10 32 23 68 14 36 25 67 25 70 1 6 0 3
36 114 14 43 23 82 21 86 -3 5 -2 10 3 12 7 3 116 321 117 343 1 6 6 19 12 30
5 11 14 34 18 50 5 17 9 35 11 40 2 6 51 150 109 320 59 171 117 342 130 380
12 39 46 134 73 213 28 78 48 142 44 142 -4 0 -2 4 3 8 15 11 66 162 58 175
-3 5 -1 7 5 3 6 -3 13 6 17 25 4 17 13 42 21 57 8 15 14 34 14 42 0 8 6 26 13
40 7 14 21 52 31 85 10 33 23 65 28 71 5 7 10 25 11 42 1 16 4 29 7 27 9 -5
91 231 93 267 1 9 4 15 7 13 3 -2 25 51 49 118 23 67 46 131 51 142 27 64 42
116 37 130 -4 8 -2 14 4 12 6 -1 21 27 33 63 13 36 35 99 50 140 15 41 29 80
30 85 2 6 8 24 15 40 14 33 42 115 46 130 1 6 7 21 13 35 28 65 61 164 57 171
-3 4 -1 9 3 11 4 1 36 82 71 178 34 96 67 186 72 200 6 13 22 58 36 100 14 41
31 89 38 105 7 17 22 57 33 90 11 33 34 97 51 143 17 45 27 82 23 82 -4 0 -2
4 4 8 8 5 49 109 59 152 1 3 7 19 14 35 7 17 23 59 36 95 13 36 42 117 65 180
23 63 64 178 91 255 27 77 53 149 58 160 5 11 21 54 36 95 78 217 117 326 119
335 1 6 10 28 20 49 9 22 19 51 23 65 3 14 9 31 13 36 4 6 16 42 28 81 37 117
16 198 -58 228 -44 17 -83 20 -116 6z m-929 -2680 c-3 -5 -12 -10 -18 -10 -7
0 -6 4 3 10 19 12 23 12 15 0z m-731 -1118 c3 -5 -1 -9 -9 -9 -8 0 -12 4 -9 9
3 4 7 8 9 8 2 0 6 -4 9 -8z m-44 -78 c0 -8 -19 -13 -24 -6 -3 5 1 9 9 9 8 0
15 -2 15 -3z m44 -1410 c3 -8 2 -12 -4 -9 -6 3 -10 10 -10 16 0 14 7 11 14 -7z
m2920 -3592 c3 -5 -1 -9 -9 -9 -8 0 -12 4 -9 9 3 4 7 8 9 8 2 0 6 -4 9 -8z
m96 -78 c0 -8 -19 -13 -24 -6 -3 5 1 9 9 9 8 0 15 -2 15 -3z m-210 -40 c0 -8
-19 -13 -24 -6 -3 5 1 9 9 9 8 0 15 -2 15 -3z m-4719 -186 c10 -15 8 -21 -43
-203 -22 -77 -41 -147 -43 -155 -4 -19 -121 -434 -134 -475 -5 -16 -55 -194
-111 -395 -56 -201 -107 -371 -113 -379 -9 -11 -52 -12 -232 -6 -121 3 -236 8
-255 10 -19 1 -91 6 -160 10 -69 3 -136 8 -150 10 -14 2 -61 6 -105 10 -44 3
-91 8 -105 10 -14 2 -52 6 -85 10 -33 3 -89 10 -125 16 -36 5 -76 12 -90 14
-27 4 -112 18 -120 20 -3 1 -25 5 -50 9 -169 29 -415 107 -529 168 -179 95
-261 199 -262 331 -3 316 377 579 1096 761 141 36 436 99 510 110 22 4 63 10
90 16 28 5 68 12 90 15 56 8 235 35 265 40 28 4 244 31 330 40 30 4 66 8 80
10 14 2 59 7 100 10 41 4 76 8 78 10 8 8 66 -6 73 -17z m941 -52 c106 -25 243
-57 303 -71 61 -15 117 -28 125 -30 162 -34 798 -212 875 -245 11 -4 58 -23
104 -41 171 -66 242 -119 219 -163 -13 -24 -26 -36 -83 -73 -47 -31 -218 -117
-325 -163 -41 -18 -93 -40 -115 -50 -22 -10 -128 -52 -235 -95 -107 -42 -204
-80 -215 -85 -37 -16 -529 -197 -620 -228 -33 -12 -96 -34 -140 -50 -44 -16
-120 -43 -170 -60 -49 -17 -148 -52 -219 -77 -71 -25 -139 -45 -152 -45 -40 0
-38 32 11 187 26 82 56 177 67 213 11 36 23 76 28 90 5 14 32 99 60 190 29 91
60 191 70 222 10 32 56 176 101 320 69 222 98 298 115 298 1 0 90 -20 196 -44z
m7453 -395 c3 -5 2 -12 -3 -15 -5 -3 -9 1 -9 9 0 17 3 19 12 6z m2129 -4849
c3 -5 -1 -9 -9 -9 -8 0 -12 4 -9 9 3 4 7 8 9 8 2 0 6 -4 9 -8z"/>
</g>
</svg>
